<svg id="Layer_1" enable-background="new 0 0 700 700" height="700" viewBox="0 0 700 700" width="700" xmlns="http://www.w3.org/2000/svg"><circle cx="350" cy="350" fill="#333" r="350"/><path d="m451.527 196.113c-34.111-34.112-79.467-52.898-127.708-52.897-48.241 0-93.596 18.787-127.707 52.897-34.113 34.112-52.898 79.467-52.898 127.707 0 48.242 18.785 93.597 52.898 127.708 34.111 34.112 79.466 52.897 127.707 52.897 36.894.001 72.093-10.998 101.872-31.426l73.989 73.988c13.063 13.063 34.244 13.063 47.308-.001 13.063-13.063 13.063-34.244 0-47.308l-73.989-73.988c20.426-29.779 31.425-64.978 31.426-101.87 0-48.242-18.786-93.595-52.898-127.707zm-43.107 212.307c-46.647 46.648-122.552 46.647-169.2 0-46.647-46.649-46.647-122.551 0-169.199 46.648-46.648 122.553-46.648 169.2 0s46.647 122.55 0 169.199z" fill="#fff"/></svg>