<svg width="18" height="19" viewBox="0 0 18 19" fill="none" xmlns="http://www.w3.org/2000/svg">
<path fill-rule="evenodd" clip-rule="evenodd" d="M1.67456 2.93979C1.67456 2.24943 2.23421 1.68979 2.92456 1.68979H15.196C15.8864 1.68979 16.446 2.24943 16.446 2.93979V3.8003C16.071 3.60859 15.6462 3.50045 15.196 3.50045H2.92456C2.47445 3.50045 2.04959 3.60859 1.67456 3.80031V2.93979ZM1.67456 6.25045V6.58584C2.04959 6.39413 2.47445 6.28599 2.92456 6.28599H5.63158H6.08228L6.29383 6.68396L6.86304 7.7548C7.70831 9.34498 9.98624 9.34715 10.8345 7.75858L11.4091 6.6827L11.6209 6.28599H12.0706H15.196C15.6462 6.28599 16.071 6.39413 16.446 6.58584V6.25045C16.446 5.56009 15.8864 5.00045 15.196 5.00045H2.92456C2.23421 5.00045 1.67456 5.5601 1.67456 6.25045ZM17.946 7.56112V9.03599V10.8718V15.5873C17.946 17.1061 16.7148 18.3373 15.196 18.3373H2.92456C1.40578 18.3373 0.174561 17.1061 0.174561 15.5873V9.95215V9.03599V6.64149V6.25045V2.93979C0.174561 1.42101 1.40578 0.189789 2.92456 0.189789H15.196C16.7148 0.189789 17.946 1.42101 17.946 2.93979V6.25045V7.56112ZM1.67456 9.95215V9.03599C1.67456 8.34563 2.2342 7.78599 2.92456 7.78599H5.18087L5.53854 8.45885C6.94733 11.1092 10.7439 11.1128 12.1577 8.46516L12.5204 7.78599H15.196C15.8864 7.78599 16.446 8.34563 16.446 9.03599V10.8718V15.5873C16.446 16.2776 15.8864 16.8373 15.196 16.8373H2.92456C2.2342 16.8373 1.67456 16.2776 1.67456 15.5873V9.95215Z" fill="black"/>
</svg>
